<?xml version="1.0" encoding="UTF-8" standalone="no"?>
<!DOCTYPE svg PUBLIC "-//W3C//DTD SVG 1.1//EN"
 "http://www.w3.org/Graphics/SVG/1.1/DTD/svg11.dtd">
<!-- Generated by graphviz version 2.43.0 (0)
 -->
<!-- Title: %3 Pages: 1 -->
<svg width="924pt" height="730pt"
 viewBox="0.00 0.00 924.00 730.00" xmlns="http://www.w3.org/2000/svg" xmlns:xlink="http://www.w3.org/1999/xlink">
<g id="graph0" class="graph" transform="scale(1 1) rotate(0) translate(4 726)">
<title>%3</title>
<g id="clust1" class="cluster">
<title>cluster_AS_65100</title>
<polygon fill="#e8e8e8" stroke="#c0c0c0" points="202,-8 202,-539 540,-539 540,-8 202,-8"/>
<text text-anchor="middle" x="371" y="-525.4" font-family="Verdana" font-size="12.00">AS 65100</text>
</g>
<g id="clust2" class="cluster">
<title>cluster_AS_65201</title>
<polygon fill="#e8e8e8" stroke="#c0c0c0" points="240,-558 240,-649 426,-649 426,-558 240,-558"/>
<text text-anchor="middle" x="333" y="-635.4" font-family="Verdana" font-size="12.00">AS 65201</text>
</g>
<g id="clust3" class="cluster">
<title>cluster_AS_65202</title>
<polygon fill="#e8e8e8" stroke="#c0c0c0" points="548,-448 548,-539 734,-539 734,-448 548,-448"/>
<text text-anchor="middle" x="641" y="-525.4" font-family="Verdana" font-size="12.00">AS 65202</text>
</g>
<g id="clust4" class="cluster">
<title>cluster_AS_65203</title>
<polygon fill="#e8e8e8" stroke="#c0c0c0" points="548,-338 548,-429 734,-429 734,-338 548,-338"/>
<text text-anchor="middle" x="641" y="-415.4" font-family="Verdana" font-size="12.00">AS 65203</text>
</g>
<g id="clust5" class="cluster">
<title>cluster_AS_65204</title>
<polygon fill="#e8e8e8" stroke="#c0c0c0" points="548,-228 548,-319 734,-319 734,-228 548,-228"/>
<text text-anchor="middle" x="641" y="-305.4" font-family="Verdana" font-size="12.00">AS 65204</text>
</g>
<g id="clust6" class="cluster">
<title>cluster_AS_65205</title>
<polygon fill="#e8e8e8" stroke="#c0c0c0" points="8,-118 8,-209 194,-209 194,-118 8,-118"/>
<text text-anchor="middle" x="101" y="-195.4" font-family="Verdana" font-size="12.00">AS 65205</text>
</g>
<!-- c1 -->
<g id="node1" class="node">
<title>c1</title>
<path fill="#ff9f01" stroke="black" d="M397.5,-502C397.5,-502 268.5,-502 268.5,-502 262.5,-502 256.5,-496 256.5,-490 256.5,-490 256.5,-476 256.5,-476 256.5,-470 262.5,-464 268.5,-464 268.5,-464 397.5,-464 397.5,-464 403.5,-464 409.5,-470 409.5,-476 409.5,-476 409.5,-490 409.5,-490 409.5,-496 403.5,-502 397.5,-502"/>
<text text-anchor="middle" x="333" y="-486.2" font-family="Verdana" font-size="11.00">c1 [frr]</text>
<text text-anchor="middle" x="333" y="-474.2" font-family="Verdana" font-size="11.00">2001:100:ffff::1/128</text>
</g>
<!-- c2 -->
<g id="node2" class="node">
<title>c2</title>
<path fill="#ff9f01" stroke="black" d="M435.5,-392C435.5,-392 306.5,-392 306.5,-392 300.5,-392 294.5,-386 294.5,-380 294.5,-380 294.5,-366 294.5,-366 294.5,-360 300.5,-354 306.5,-354 306.5,-354 435.5,-354 435.5,-354 441.5,-354 447.5,-360 447.5,-366 447.5,-366 447.5,-380 447.5,-380 447.5,-386 441.5,-392 435.5,-392"/>
<text text-anchor="middle" x="371" y="-376.2" font-family="Verdana" font-size="11.00">c2 [frr]</text>
<text text-anchor="middle" x="371" y="-364.2" font-family="Verdana" font-size="11.00">2001:100:ffff::2/128</text>
</g>
<!-- c1&#45;&#45;c2 -->
<g id="edge1" class="edge">
<title>c1&#45;&#45;c2</title>
<path fill="none" stroke="black" d="M339.45,-463.68C346.48,-443.7 357.66,-411.92 364.65,-392.05"/>
</g>
<!-- c3 -->
<g id="node3" class="node">
<title>c3</title>
<path fill="#ff9f01" stroke="black" d="M511.5,-282C511.5,-282 382.5,-282 382.5,-282 376.5,-282 370.5,-276 370.5,-270 370.5,-270 370.5,-256 370.5,-256 370.5,-250 376.5,-244 382.5,-244 382.5,-244 511.5,-244 511.5,-244 517.5,-244 523.5,-250 523.5,-256 523.5,-256 523.5,-270 523.5,-270 523.5,-276 517.5,-282 511.5,-282"/>
<text text-anchor="middle" x="447" y="-266.2" font-family="Verdana" font-size="11.00">c3 [frr]</text>
<text text-anchor="middle" x="447" y="-254.2" font-family="Verdana" font-size="11.00">2001:100:ffff::3/128</text>
</g>
<!-- c1&#45;&#45;c3 -->
<g id="edge2" class="edge">
<title>c1&#45;&#45;c3</title>
<path fill="none" stroke="black" d="M409.62,-468.42C431.47,-460.62 452.89,-448.34 466,-429 496.74,-383.65 471.39,-314.73 456.27,-282.2"/>
</g>
<!-- c4 -->
<g id="node4" class="node">
<title>c4</title>
<path fill="#ff9f01" stroke="black" d="M473.5,-172C473.5,-172 344.5,-172 344.5,-172 338.5,-172 332.5,-166 332.5,-160 332.5,-160 332.5,-146 332.5,-146 332.5,-140 338.5,-134 344.5,-134 344.5,-134 473.5,-134 473.5,-134 479.5,-134 485.5,-140 485.5,-146 485.5,-146 485.5,-160 485.5,-160 485.5,-166 479.5,-172 473.5,-172"/>
<text text-anchor="middle" x="409" y="-156.2" font-family="Verdana" font-size="11.00">c4 [frr]</text>
<text text-anchor="middle" x="409" y="-144.2" font-family="Verdana" font-size="11.00">2001:100:ffff::4/128</text>
</g>
<!-- c1&#45;&#45;c4 -->
<g id="edge3" class="edge">
<title>c1&#45;&#45;c4</title>
<path fill="none" stroke="black" d="M305.7,-463.87C294.59,-454.85 282.98,-442.89 277,-429 261.01,-391.85 267.14,-377.23 277,-338 290.52,-284.2 303.07,-272.65 336,-228 351.42,-207.09 372.59,-186.29 388.17,-172.09"/>
</g>
<!-- c5 -->
<g id="node5" class="node">
<title>c5</title>
<path fill="#ff9f01" stroke="black" d="M359.5,-62C359.5,-62 230.5,-62 230.5,-62 224.5,-62 218.5,-56 218.5,-50 218.5,-50 218.5,-36 218.5,-36 218.5,-30 224.5,-24 230.5,-24 230.5,-24 359.5,-24 359.5,-24 365.5,-24 371.5,-30 371.5,-36 371.5,-36 371.5,-50 371.5,-50 371.5,-56 365.5,-62 359.5,-62"/>
<text text-anchor="middle" x="295" y="-46.2" font-family="Verdana" font-size="11.00">c5 [frr]</text>
<text text-anchor="middle" x="295" y="-34.2" font-family="Verdana" font-size="11.00">2001:100:ffff::5/128</text>
</g>
<!-- c1&#45;&#45;c5 -->
<g id="edge4" class="edge">
<title>c1&#45;&#45;c5</title>
<path fill="none" stroke="black" d="M293.54,-463.95C279.7,-455.45 265.7,-443.87 258,-429 192.23,-301.99 261.52,-119.81 286.65,-62.19"/>
</g>
<!-- c2&#45;&#45;c3 -->
<g id="edge5" class="edge">
<title>c2&#45;&#45;c3</title>
<path fill="none" stroke="black" d="M383.89,-353.68C397.95,-333.7 420.31,-301.92 434.3,-282.05"/>
</g>
<!-- c2&#45;&#45;c4 -->
<g id="edge6" class="edge">
<title>c2&#45;&#45;c4</title>
<path fill="none" stroke="black" d="M363.14,-353.74C359.25,-343.7 354.96,-330.89 353,-319 346.41,-279.1 340.13,-266.34 353,-228 360.28,-206.31 376.71,-185.92 389.91,-172.05"/>
</g>
<!-- c2&#45;&#45;c5 -->
<g id="edge7" class="edge">
<title>c2&#45;&#45;c5</title>
<path fill="none" stroke="black" d="M356.43,-353.88C349.25,-344.08 341.07,-331.46 336,-319 298.91,-227.78 294.9,-107.31 294.8,-62.14"/>
</g>
<!-- c3&#45;&#45;c4 -->
<g id="edge8" class="edge">
<title>c3&#45;&#45;c4</title>
<path fill="none" stroke="black" d="M440.55,-243.68C433.52,-223.7 422.34,-191.92 415.35,-172.05"/>
</g>
<!-- c3&#45;&#45;c5 -->
<g id="edge9" class="edge">
<title>c3&#45;&#45;c5</title>
<path fill="none" stroke="black" d="M474.78,-243.97C486.08,-234.97 497.9,-223 504,-209 520.15,-171.92 527.34,-151.03 504,-118 474.17,-75.8 418.15,-57.51 371.61,-49.66"/>
</g>
<!-- c4&#45;&#45;c5 -->
<g id="edge10" class="edge">
<title>c4&#45;&#45;c5</title>
<path fill="none" stroke="black" d="M389.92,-133.92C368.88,-113.99 335.21,-82.1 314.14,-62.14"/>
</g>
<!-- e1 -->
<g id="node6" class="node">
<title>e1</title>
<path fill="#ff9f01" stroke="black" d="M397.5,-612C397.5,-612 268.5,-612 268.5,-612 262.5,-612 256.5,-606 256.5,-600 256.5,-600 256.5,-586 256.5,-586 256.5,-580 262.5,-574 268.5,-574 268.5,-574 397.5,-574 397.5,-574 403.5,-574 409.5,-580 409.5,-586 409.5,-586 409.5,-600 409.5,-600 409.5,-606 403.5,-612 397.5,-612"/>
<text text-anchor="middle" x="333" y="-596.2" font-family="Verdana" font-size="11.00">e1 [frr]</text>
<text text-anchor="middle" x="333" y="-584.2" font-family="Verdana" font-size="11.00">2001:201:ffff::6/128</text>
</g>
<!-- e1&#45;&#45;c1 -->
<g id="edge11" class="edge">
<title>e1&#45;&#45;c1</title>
<path fill="none" stroke="black" d="M333,-573.68C333,-553.7 333,-521.92 333,-502.05"/>
</g>
<!-- e2 -->
<g id="node7" class="node">
<title>e2</title>
<path fill="#ff9f01" stroke="black" d="M705.5,-502C705.5,-502 576.5,-502 576.5,-502 570.5,-502 564.5,-496 564.5,-490 564.5,-490 564.5,-476 564.5,-476 564.5,-470 570.5,-464 576.5,-464 576.5,-464 705.5,-464 705.5,-464 711.5,-464 717.5,-470 717.5,-476 717.5,-476 717.5,-490 717.5,-490 717.5,-496 711.5,-502 705.5,-502"/>
<text text-anchor="middle" x="641" y="-486.2" font-family="Verdana" font-size="11.00">e2 [frr]</text>
<text text-anchor="middle" x="641" y="-474.2" font-family="Verdana" font-size="11.00">2001:202:ffff::7/128</text>
</g>
<!-- e2&#45;&#45;c2 -->
<g id="edge12" class="edge">
<title>e2&#45;&#45;c2</title>
<path fill="none" stroke="black" d="M595.81,-463.92C545.97,-443.99 466.24,-412.1 416.34,-392.14"/>
</g>
<!-- e3 -->
<g id="node8" class="node">
<title>e3</title>
<path fill="#ff9f01" stroke="black" d="M705.5,-392C705.5,-392 576.5,-392 576.5,-392 570.5,-392 564.5,-386 564.5,-380 564.5,-380 564.5,-366 564.5,-366 564.5,-360 570.5,-354 576.5,-354 576.5,-354 705.5,-354 705.5,-354 711.5,-354 717.5,-360 717.5,-366 717.5,-366 717.5,-380 717.5,-380 717.5,-386 711.5,-392 705.5,-392"/>
<text text-anchor="middle" x="641" y="-376.2" font-family="Verdana" font-size="11.00">e3 [frr]</text>
<text text-anchor="middle" x="641" y="-364.2" font-family="Verdana" font-size="11.00">2001:203:ffff::8/128</text>
</g>
<!-- e3&#45;&#45;c3 -->
<g id="edge13" class="edge">
<title>e3&#45;&#45;c3</title>
<path fill="none" stroke="black" d="M604.85,-353.88C585.21,-343.87 560.61,-331.06 539,-319 517.71,-307.12 494.12,-293 476.16,-282.04"/>
</g>
<!-- e4 -->
<g id="node9" class="node">
<title>e4</title>
<path fill="#ff9f01" stroke="black" d="M705.5,-282C705.5,-282 576.5,-282 576.5,-282 570.5,-282 564.5,-276 564.5,-270 564.5,-270 564.5,-256 564.5,-256 564.5,-250 570.5,-244 576.5,-244 576.5,-244 705.5,-244 705.5,-244 711.5,-244 717.5,-250 717.5,-256 717.5,-256 717.5,-270 717.5,-270 717.5,-276 711.5,-282 705.5,-282"/>
<text text-anchor="middle" x="641" y="-266.2" font-family="Verdana" font-size="11.00">e4 [frr]</text>
<text text-anchor="middle" x="641" y="-254.2" font-family="Verdana" font-size="11.00">2001:204:ffff::9/128</text>
</g>
<!-- e4&#45;&#45;c4 -->
<g id="edge14" class="edge">
<title>e4&#45;&#45;c4</title>
<path fill="none" stroke="black" d="M602.17,-243.92C559.34,-223.99 490.83,-192.1 447.96,-172.14"/>
</g>
<!-- e5 -->
<g id="node10" class="node">
<title>e5</title>
<path fill="#ff9f01" stroke="black" d="M165.5,-172C165.5,-172 36.5,-172 36.5,-172 30.5,-172 24.5,-166 24.5,-160 24.5,-160 24.5,-146 24.5,-146 24.5,-140 30.5,-134 36.5,-134 36.5,-134 165.5,-134 165.5,-134 171.5,-134 177.5,-140 177.5,-146 177.5,-146 177.5,-160 177.5,-160 177.5,-166 171.5,-172 165.5,-172"/>
<text text-anchor="middle" x="101" y="-156.2" font-family="Verdana" font-size="11.00">e5 [frr]</text>
<text text-anchor="middle" x="101" y="-144.2" font-family="Verdana" font-size="11.00">2001:205:ffff::a/128</text>
</g>
<!-- e5&#45;&#45;c5 -->
<g id="edge15" class="edge">
<title>e5&#45;&#45;c5</title>
<path fill="none" stroke="black" d="M133.47,-133.92C169.28,-113.99 226.57,-82.1 262.42,-62.14"/>
</g>
<!-- k01&#45;control&#45;plane -->
<g id="node11" class="node">
<title>k01&#45;control&#45;plane</title>
<path fill="#ff9f01" stroke="black" d="M617.5,-721C617.5,-721 462.5,-721 462.5,-721 456.5,-721 450.5,-715 450.5,-709 450.5,-709 450.5,-697 450.5,-697 450.5,-691 456.5,-685 462.5,-685 462.5,-685 617.5,-685 617.5,-685 623.5,-685 629.5,-691 629.5,-697 629.5,-697 629.5,-709 629.5,-709 629.5,-715 623.5,-721 617.5,-721"/>
<text text-anchor="middle" x="540" y="-700.2" font-family="Verdana" font-size="11.00">k01&#45;control&#45;plane [linux]</text>
</g>
<!-- k01&#45;worker -->
<g id="node12" class="node">
<title>k01&#45;worker</title>
<path fill="#ff9f01" stroke="black" d="M402,-722C402,-722 264,-722 264,-722 258,-722 252,-716 252,-710 252,-710 252,-696 252,-696 252,-690 258,-684 264,-684 264,-684 402,-684 402,-684 408,-684 414,-690 414,-696 414,-696 414,-710 414,-710 414,-716 408,-722 402,-722"/>
<text text-anchor="middle" x="333" y="-706.2" font-family="Verdana" font-size="11.00">k01&#45;worker [linux]</text>
<text text-anchor="middle" x="333" y="-694.2" font-family="Verdana" font-size="11.00">2001:201:cccc::3/127</text>
</g>
<!-- k01&#45;worker&#45;&#45;e1 -->
<g id="edge16" class="edge">
<title>k01&#45;worker&#45;&#45;e1</title>
<path fill="none" stroke="black" d="M333,-683.68C333,-663.7 333,-631.92 333,-612.05"/>
</g>
<!-- k01&#45;worker2 -->
<g id="node13" class="node">
<title>k01&#45;worker2</title>
<path fill="#ff9f01" stroke="black" d="M710,-612C710,-612 572,-612 572,-612 566,-612 560,-606 560,-600 560,-600 560,-586 560,-586 560,-580 566,-574 572,-574 572,-574 710,-574 710,-574 716,-574 722,-580 722,-586 722,-586 722,-600 722,-600 722,-606 716,-612 710,-612"/>
<text text-anchor="middle" x="641" y="-596.2" font-family="Verdana" font-size="11.00">k01&#45;worker2 [linux]</text>
<text text-anchor="middle" x="641" y="-584.2" font-family="Verdana" font-size="11.00">2001:202:cccc::3/127</text>
</g>
<!-- k01&#45;worker2&#45;&#45;e2 -->
<g id="edge17" class="edge">
<title>k01&#45;worker2&#45;&#45;e2</title>
<path fill="none" stroke="black" d="M641,-573.68C641,-553.7 641,-521.92 641,-502.05"/>
</g>
<!-- k01&#45;worker3 -->
<g id="node14" class="node">
<title>k01&#45;worker3</title>
<path fill="#ff9f01" stroke="black" d="M904,-502C904,-502 766,-502 766,-502 760,-502 754,-496 754,-490 754,-490 754,-476 754,-476 754,-470 760,-464 766,-464 766,-464 904,-464 904,-464 910,-464 916,-470 916,-476 916,-476 916,-490 916,-490 916,-496 910,-502 904,-502"/>
<text text-anchor="middle" x="835" y="-486.2" font-family="Verdana" font-size="11.00">k01&#45;worker3 [linux]</text>
<text text-anchor="middle" x="835" y="-474.2" font-family="Verdana" font-size="11.00">2001:203:cccc::3/127</text>
</g>
<!-- k01&#45;worker3&#45;&#45;e3 -->
<g id="edge18" class="edge">
<title>k01&#45;worker3&#45;&#45;e3</title>
<path fill="none" stroke="black" d="M800.48,-463.88C781.39,-453.77 757.29,-440.86 736,-429 714.36,-416.95 690.2,-402.95 671.66,-392.09"/>
</g>
<!-- k01&#45;worker4 -->
<g id="node15" class="node">
<title>k01&#45;worker4</title>
<path fill="#ff9f01" stroke="black" d="M904,-392C904,-392 766,-392 766,-392 760,-392 754,-386 754,-380 754,-380 754,-366 754,-366 754,-360 760,-354 766,-354 766,-354 904,-354 904,-354 910,-354 916,-360 916,-366 916,-366 916,-380 916,-380 916,-386 910,-392 904,-392"/>
<text text-anchor="middle" x="835" y="-376.2" font-family="Verdana" font-size="11.00">k01&#45;worker4 [linux]</text>
<text text-anchor="middle" x="835" y="-364.2" font-family="Verdana" font-size="11.00">2001:204:cccc::3/127</text>
</g>
<!-- k01&#45;worker4&#45;&#45;e4 -->
<g id="edge19" class="edge">
<title>k01&#45;worker4&#45;&#45;e4</title>
<path fill="none" stroke="black" d="M802.53,-353.92C766.72,-333.99 709.43,-302.1 673.58,-282.14"/>
</g>
<!-- k01&#45;worker5 -->
<g id="node16" class="node">
<title>k01&#45;worker5</title>
<path fill="#ff9f01" stroke="black" d="M170,-282C170,-282 32,-282 32,-282 26,-282 20,-276 20,-270 20,-270 20,-256 20,-256 20,-250 26,-244 32,-244 32,-244 170,-244 170,-244 176,-244 182,-250 182,-256 182,-256 182,-270 182,-270 182,-276 176,-282 170,-282"/>
<text text-anchor="middle" x="101" y="-266.2" font-family="Verdana" font-size="11.00">k01&#45;worker5 [linux]</text>
<text text-anchor="middle" x="101" y="-254.2" font-family="Verdana" font-size="11.00">2001:205:cccc::3/127</text>
</g>
<!-- k01&#45;worker5&#45;&#45;e5 -->
<g id="edge20" class="edge">
<title>k01&#45;worker5&#45;&#45;e5</title>
<path fill="none" stroke="black" d="M101,-243.68C101,-223.7 101,-191.92 101,-172.05"/>
</g>
</g>
</svg>
