<?xml version="1.0" encoding="UTF-8" standalone="no"?>
<!DOCTYPE svg PUBLIC "-//W3C//DTD SVG 1.1//EN"
 "http://www.w3.org/Graphics/SVG/1.1/DTD/svg11.dtd">
<!-- Generated by graphviz version 2.43.0 (0)
 -->
<!-- Title: %3 Pages: 1 -->
<svg width="848pt" height="730pt"
 viewBox="0.00 0.00 848.00 730.00" xmlns="http://www.w3.org/2000/svg" xmlns:xlink="http://www.w3.org/1999/xlink">
<g id="graph0" class="graph" transform="scale(1 1) rotate(0) translate(4 726)">
<title>%3</title>
<g id="clust1" class="cluster">
<title>cluster_AS_65100</title>
<polygon fill="#e8e8e8" stroke="#c0c0c0" points="202,-8 202,-539 464,-539 464,-8 202,-8"/>
<text text-anchor="middle" x="333" y="-525.4" font-family="Verdana" font-size="12.00">AS 65100</text>
</g>
<g id="clust2" class="cluster">
<title>cluster_AS_65201</title>
<polygon fill="#e8e8e8" stroke="#c0c0c0" points="202,-558 202,-649 388,-649 388,-558 202,-558"/>
<text text-anchor="middle" x="295" y="-635.4" font-family="Verdana" font-size="12.00">AS 65201</text>
</g>
<g id="clust3" class="cluster">
<title>cluster_AS_65202</title>
<polygon fill="#e8e8e8" stroke="#c0c0c0" points="472,-448 472,-539 658,-539 658,-448 472,-448"/>
<text text-anchor="middle" x="565" y="-525.4" font-family="Verdana" font-size="12.00">AS 65202</text>
</g>
<g id="clust4" class="cluster">
<title>cluster_AS_65203</title>
<polygon fill="#e8e8e8" stroke="#c0c0c0" points="472,-338 472,-429 658,-429 658,-338 472,-338"/>
<text text-anchor="middle" x="565" y="-415.4" font-family="Verdana" font-size="12.00">AS 65203</text>
</g>
<g id="clust5" class="cluster">
<title>cluster_AS_65204</title>
<polygon fill="#e8e8e8" stroke="#c0c0c0" points="472,-228 472,-319 658,-319 658,-228 472,-228"/>
<text text-anchor="middle" x="565" y="-305.4" font-family="Verdana" font-size="12.00">AS 65204</text>
</g>
<g id="clust6" class="cluster">
<title>cluster_AS_65205</title>
<polygon fill="#e8e8e8" stroke="#c0c0c0" points="8,-118 8,-209 194,-209 194,-118 8,-118"/>
<text text-anchor="middle" x="101" y="-195.4" font-family="Verdana" font-size="12.00">AS 65205</text>
</g>
<!-- iad&#45;c -->
<g id="node1" class="node">
<title>iad&#45;c</title>
<path fill="#ff9f01" stroke="black" d="M359.5,-502C359.5,-502 230.5,-502 230.5,-502 224.5,-502 218.5,-496 218.5,-490 218.5,-490 218.5,-476 218.5,-476 218.5,-470 224.5,-464 230.5,-464 230.5,-464 359.5,-464 359.5,-464 365.5,-464 371.5,-470 371.5,-476 371.5,-476 371.5,-490 371.5,-490 371.5,-496 365.5,-502 359.5,-502"/>
<text text-anchor="middle" x="295" y="-486.2" font-family="Verdana" font-size="11.00">iad&#45;c [frr]</text>
<text text-anchor="middle" x="295" y="-474.2" font-family="Verdana" font-size="11.00">2001:100:ffff::1/128</text>
</g>
<!-- sjc&#45;c -->
<g id="node2" class="node">
<title>sjc&#45;c</title>
<path fill="#ff9f01" stroke="black" d="M435.5,-392C435.5,-392 306.5,-392 306.5,-392 300.5,-392 294.5,-386 294.5,-380 294.5,-380 294.5,-366 294.5,-366 294.5,-360 300.5,-354 306.5,-354 306.5,-354 435.5,-354 435.5,-354 441.5,-354 447.5,-360 447.5,-366 447.5,-366 447.5,-380 447.5,-380 447.5,-386 441.5,-392 435.5,-392"/>
<text text-anchor="middle" x="371" y="-376.2" font-family="Verdana" font-size="11.00">sjc&#45;c [frr]</text>
<text text-anchor="middle" x="371" y="-364.2" font-family="Verdana" font-size="11.00">2001:100:ffff::2/128</text>
</g>
<!-- iad&#45;c&#45;&#45;sjc&#45;c -->
<g id="edge1" class="edge">
<title>iad&#45;c&#45;&#45;sjc&#45;c</title>
<path fill="none" stroke="black" d="M307.89,-463.68C321.95,-443.7 344.31,-411.92 358.3,-392.05"/>
</g>
<!-- tor&#45;c -->
<g id="node3" class="node">
<title>tor&#45;c</title>
<path fill="#ff9f01" stroke="black" d="M435.5,-282C435.5,-282 306.5,-282 306.5,-282 300.5,-282 294.5,-276 294.5,-270 294.5,-270 294.5,-256 294.5,-256 294.5,-250 300.5,-244 306.5,-244 306.5,-244 435.5,-244 435.5,-244 441.5,-244 447.5,-250 447.5,-256 447.5,-256 447.5,-270 447.5,-270 447.5,-276 441.5,-282 435.5,-282"/>
<text text-anchor="middle" x="371" y="-266.2" font-family="Verdana" font-size="11.00">tor&#45;c [frr]</text>
<text text-anchor="middle" x="371" y="-254.2" font-family="Verdana" font-size="11.00">2001:100:ffff::3/128</text>
</g>
<!-- iad&#45;c&#45;&#45;tor&#45;c -->
<g id="edge2" class="edge">
<title>iad&#45;c&#45;&#45;tor&#45;c</title>
<path fill="none" stroke="black" d="M286.53,-463.67C274.71,-435.24 256.86,-379.48 277,-338 288.88,-313.52 313.22,-294.72 334.15,-282.19"/>
</g>
<!-- fra&#45;c -->
<g id="node4" class="node">
<title>fra&#45;c</title>
<path fill="#ff9f01" stroke="black" d="M435.5,-172C435.5,-172 306.5,-172 306.5,-172 300.5,-172 294.5,-166 294.5,-160 294.5,-160 294.5,-146 294.5,-146 294.5,-140 300.5,-134 306.5,-134 306.5,-134 435.5,-134 435.5,-134 441.5,-134 447.5,-140 447.5,-146 447.5,-146 447.5,-160 447.5,-160 447.5,-166 441.5,-172 435.5,-172"/>
<text text-anchor="middle" x="371" y="-156.2" font-family="Verdana" font-size="11.00">fra&#45;c [frr]</text>
<text text-anchor="middle" x="371" y="-144.2" font-family="Verdana" font-size="11.00">2001:100:ffff::4/128</text>
</g>
<!-- iad&#45;c&#45;&#45;fra&#45;c -->
<g id="edge3" class="edge">
<title>iad&#45;c&#45;&#45;fra&#45;c</title>
<path fill="none" stroke="black" d="M278.19,-463.9C270.42,-454.29 262.04,-441.85 258,-429 231.08,-343.4 231.06,-305.08 277,-228 291.25,-204.09 316.34,-184.94 337.01,-172.11"/>
</g>
<!-- sjc&#45;c&#45;&#45;tor&#45;c -->
<g id="edge4" class="edge">
<title>sjc&#45;c&#45;&#45;tor&#45;c</title>
<path fill="none" stroke="black" d="M371,-353.68C371,-333.7 371,-301.92 371,-282.05"/>
</g>
<!-- sin&#45;c -->
<g id="node5" class="node">
<title>sin&#45;c</title>
<path fill="#ff9f01" stroke="black" d="M359.5,-62C359.5,-62 230.5,-62 230.5,-62 224.5,-62 218.5,-56 218.5,-50 218.5,-50 218.5,-36 218.5,-36 218.5,-30 224.5,-24 230.5,-24 230.5,-24 359.5,-24 359.5,-24 365.5,-24 371.5,-30 371.5,-36 371.5,-36 371.5,-50 371.5,-50 371.5,-56 365.5,-62 359.5,-62"/>
<text text-anchor="middle" x="295" y="-46.2" font-family="Verdana" font-size="11.00">sin&#45;c [frr]</text>
<text text-anchor="middle" x="295" y="-34.2" font-family="Verdana" font-size="11.00">2001:100:ffff::5/128</text>
</g>
<!-- sjc&#45;c&#45;&#45;sin&#45;c -->
<g id="edge5" class="edge">
<title>sjc&#45;c&#45;&#45;sin&#45;c</title>
<path fill="none" stroke="black" d="M317.37,-353.97C301.56,-345.87 286.07,-334.53 277,-319 227.53,-234.31 268.83,-108.91 287.25,-62.31"/>
</g>
<!-- tor&#45;c&#45;&#45;fra&#45;c -->
<g id="edge6" class="edge">
<title>tor&#45;c&#45;&#45;fra&#45;c</title>
<path fill="none" stroke="black" d="M371,-243.68C371,-223.7 371,-191.92 371,-172.05"/>
</g>
<!-- fra&#45;c&#45;&#45;sin&#45;c -->
<g id="edge7" class="edge">
<title>fra&#45;c&#45;&#45;sin&#45;c</title>
<path fill="none" stroke="black" d="M358.11,-133.68C344.05,-113.7 321.69,-81.92 307.7,-62.05"/>
</g>
<!-- iad&#45;e -->
<g id="node6" class="node">
<title>iad&#45;e</title>
<path fill="#ff9f01" stroke="black" d="M359.5,-612C359.5,-612 230.5,-612 230.5,-612 224.5,-612 218.5,-606 218.5,-600 218.5,-600 218.5,-586 218.5,-586 218.5,-580 224.5,-574 230.5,-574 230.5,-574 359.5,-574 359.5,-574 365.5,-574 371.5,-580 371.5,-586 371.5,-586 371.5,-600 371.5,-600 371.5,-606 365.5,-612 359.5,-612"/>
<text text-anchor="middle" x="295" y="-596.2" font-family="Verdana" font-size="11.00">iad&#45;e [frr]</text>
<text text-anchor="middle" x="295" y="-584.2" font-family="Verdana" font-size="11.00">2001:201:ffff::6/128</text>
</g>
<!-- iad&#45;e&#45;&#45;iad&#45;c -->
<g id="edge8" class="edge">
<title>iad&#45;e&#45;&#45;iad&#45;c</title>
<path fill="none" stroke="black" d="M295,-573.68C295,-553.7 295,-521.92 295,-502.05"/>
</g>
<!-- sjc&#45;e -->
<g id="node7" class="node">
<title>sjc&#45;e</title>
<path fill="#ff9f01" stroke="black" d="M629.5,-502C629.5,-502 500.5,-502 500.5,-502 494.5,-502 488.5,-496 488.5,-490 488.5,-490 488.5,-476 488.5,-476 488.5,-470 494.5,-464 500.5,-464 500.5,-464 629.5,-464 629.5,-464 635.5,-464 641.5,-470 641.5,-476 641.5,-476 641.5,-490 641.5,-490 641.5,-496 635.5,-502 629.5,-502"/>
<text text-anchor="middle" x="565" y="-486.2" font-family="Verdana" font-size="11.00">sjc&#45;e [frr]</text>
<text text-anchor="middle" x="565" y="-474.2" font-family="Verdana" font-size="11.00">2001:202:ffff::7/128</text>
</g>
<!-- sjc&#45;e&#45;&#45;sjc&#45;c -->
<g id="edge9" class="edge">
<title>sjc&#45;e&#45;&#45;sjc&#45;c</title>
<path fill="none" stroke="black" d="M528.85,-463.88C509.21,-453.87 484.61,-441.06 463,-429 441.71,-417.12 418.12,-403 400.16,-392.04"/>
</g>
<!-- tor&#45;e -->
<g id="node8" class="node">
<title>tor&#45;e</title>
<path fill="#ff9f01" stroke="black" d="M629.5,-392C629.5,-392 500.5,-392 500.5,-392 494.5,-392 488.5,-386 488.5,-380 488.5,-380 488.5,-366 488.5,-366 488.5,-360 494.5,-354 500.5,-354 500.5,-354 629.5,-354 629.5,-354 635.5,-354 641.5,-360 641.5,-366 641.5,-366 641.5,-380 641.5,-380 641.5,-386 635.5,-392 629.5,-392"/>
<text text-anchor="middle" x="565" y="-376.2" font-family="Verdana" font-size="11.00">tor&#45;e [frr]</text>
<text text-anchor="middle" x="565" y="-364.2" font-family="Verdana" font-size="11.00">2001:203:ffff::8/128</text>
</g>
<!-- tor&#45;e&#45;&#45;tor&#45;c -->
<g id="edge10" class="edge">
<title>tor&#45;e&#45;&#45;tor&#45;c</title>
<path fill="none" stroke="black" d="M528.85,-353.88C509.21,-343.87 484.61,-331.06 463,-319 441.71,-307.12 418.12,-293 400.16,-282.04"/>
</g>
<!-- fra&#45;e -->
<g id="node9" class="node">
<title>fra&#45;e</title>
<path fill="#ff9f01" stroke="black" d="M629.5,-282C629.5,-282 500.5,-282 500.5,-282 494.5,-282 488.5,-276 488.5,-270 488.5,-270 488.5,-256 488.5,-256 488.5,-250 494.5,-244 500.5,-244 500.5,-244 629.5,-244 629.5,-244 635.5,-244 641.5,-250 641.5,-256 641.5,-256 641.5,-270 641.5,-270 641.5,-276 635.5,-282 629.5,-282"/>
<text text-anchor="middle" x="565" y="-266.2" font-family="Verdana" font-size="11.00">fra&#45;e [frr]</text>
<text text-anchor="middle" x="565" y="-254.2" font-family="Verdana" font-size="11.00">2001:204:ffff::9/128</text>
</g>
<!-- fra&#45;e&#45;&#45;fra&#45;c -->
<g id="edge11" class="edge">
<title>fra&#45;e&#45;&#45;fra&#45;c</title>
<path fill="none" stroke="black" d="M532.53,-243.92C496.72,-223.99 439.43,-192.1 403.58,-172.14"/>
</g>
<!-- sin&#45;e -->
<g id="node10" class="node">
<title>sin&#45;e</title>
<path fill="#ff9f01" stroke="black" d="M165.5,-172C165.5,-172 36.5,-172 36.5,-172 30.5,-172 24.5,-166 24.5,-160 24.5,-160 24.5,-146 24.5,-146 24.5,-140 30.5,-134 36.5,-134 36.5,-134 165.5,-134 165.5,-134 171.5,-134 177.5,-140 177.5,-146 177.5,-146 177.5,-160 177.5,-160 177.5,-166 171.5,-172 165.5,-172"/>
<text text-anchor="middle" x="101" y="-156.2" font-family="Verdana" font-size="11.00">sin&#45;e [frr]</text>
<text text-anchor="middle" x="101" y="-144.2" font-family="Verdana" font-size="11.00">2001:205:ffff::a/128</text>
</g>
<!-- sin&#45;e&#45;&#45;sin&#45;c -->
<g id="edge12" class="edge">
<title>sin&#45;e&#45;&#45;sin&#45;c</title>
<path fill="none" stroke="black" d="M133.47,-133.92C169.28,-113.99 226.57,-82.1 262.42,-62.14"/>
</g>
<!-- k01&#45;control&#45;plane -->
<g id="node11" class="node">
<title>k01&#45;control&#45;plane</title>
<path fill="#ff9f01" stroke="black" d="M579.5,-721C579.5,-721 424.5,-721 424.5,-721 418.5,-721 412.5,-715 412.5,-709 412.5,-709 412.5,-697 412.5,-697 412.5,-691 418.5,-685 424.5,-685 424.5,-685 579.5,-685 579.5,-685 585.5,-685 591.5,-691 591.5,-697 591.5,-697 591.5,-709 591.5,-709 591.5,-715 585.5,-721 579.5,-721"/>
<text text-anchor="middle" x="502" y="-700.2" font-family="Verdana" font-size="11.00">k01&#45;control&#45;plane [linux]</text>
</g>
<!-- k01&#45;worker -->
<g id="node12" class="node">
<title>k01&#45;worker</title>
<path fill="#ff9f01" stroke="black" d="M364,-722C364,-722 226,-722 226,-722 220,-722 214,-716 214,-710 214,-710 214,-696 214,-696 214,-690 220,-684 226,-684 226,-684 364,-684 364,-684 370,-684 376,-690 376,-696 376,-696 376,-710 376,-710 376,-716 370,-722 364,-722"/>
<text text-anchor="middle" x="295" y="-706.2" font-family="Verdana" font-size="11.00">k01&#45;worker [linux]</text>
<text text-anchor="middle" x="295" y="-694.2" font-family="Verdana" font-size="11.00">2001:201:cccc::3/127</text>
</g>
<!-- k01&#45;worker&#45;&#45;iad&#45;e -->
<g id="edge13" class="edge">
<title>k01&#45;worker&#45;&#45;iad&#45;e</title>
<path fill="none" stroke="black" d="M295,-683.68C295,-663.7 295,-631.92 295,-612.05"/>
</g>
<!-- k01&#45;worker2 -->
<g id="node13" class="node">
<title>k01&#45;worker2</title>
<path fill="#ff9f01" stroke="black" d="M634,-612C634,-612 496,-612 496,-612 490,-612 484,-606 484,-600 484,-600 484,-586 484,-586 484,-580 490,-574 496,-574 496,-574 634,-574 634,-574 640,-574 646,-580 646,-586 646,-586 646,-600 646,-600 646,-606 640,-612 634,-612"/>
<text text-anchor="middle" x="565" y="-596.2" font-family="Verdana" font-size="11.00">k01&#45;worker2 [linux]</text>
<text text-anchor="middle" x="565" y="-584.2" font-family="Verdana" font-size="11.00">2001:202:cccc::2/127</text>
</g>
<!-- k01&#45;worker2&#45;&#45;sjc&#45;e -->
<g id="edge14" class="edge">
<title>k01&#45;worker2&#45;&#45;sjc&#45;e</title>
<path fill="none" stroke="black" d="M565,-573.68C565,-553.7 565,-521.92 565,-502.05"/>
</g>
<!-- k01&#45;worker3 -->
<g id="node14" class="node">
<title>k01&#45;worker3</title>
<path fill="#ff9f01" stroke="black" d="M828,-502C828,-502 690,-502 690,-502 684,-502 678,-496 678,-490 678,-490 678,-476 678,-476 678,-470 684,-464 690,-464 690,-464 828,-464 828,-464 834,-464 840,-470 840,-476 840,-476 840,-490 840,-490 840,-496 834,-502 828,-502"/>
<text text-anchor="middle" x="759" y="-486.2" font-family="Verdana" font-size="11.00">k01&#45;worker3 [linux]</text>
<text text-anchor="middle" x="759" y="-474.2" font-family="Verdana" font-size="11.00">2001:203:cccc::2/127</text>
</g>
<!-- k01&#45;worker3&#45;&#45;tor&#45;e -->
<g id="edge15" class="edge">
<title>k01&#45;worker3&#45;&#45;tor&#45;e</title>
<path fill="none" stroke="black" d="M724.48,-463.88C705.39,-453.77 681.29,-440.86 660,-429 638.36,-416.95 614.2,-402.95 595.66,-392.09"/>
</g>
<!-- k01&#45;worker4 -->
<g id="node15" class="node">
<title>k01&#45;worker4</title>
<path fill="#ff9f01" stroke="black" d="M828,-392C828,-392 690,-392 690,-392 684,-392 678,-386 678,-380 678,-380 678,-366 678,-366 678,-360 684,-354 690,-354 690,-354 828,-354 828,-354 834,-354 840,-360 840,-366 840,-366 840,-380 840,-380 840,-386 834,-392 828,-392"/>
<text text-anchor="middle" x="759" y="-376.2" font-family="Verdana" font-size="11.00">k01&#45;worker4 [linux]</text>
<text text-anchor="middle" x="759" y="-364.2" font-family="Verdana" font-size="11.00">2001:204:cccc::3/127</text>
</g>
<!-- k01&#45;worker4&#45;&#45;fra&#45;e -->
<g id="edge16" class="edge">
<title>k01&#45;worker4&#45;&#45;fra&#45;e</title>
<path fill="none" stroke="black" d="M726.53,-353.92C690.72,-333.99 633.43,-302.1 597.58,-282.14"/>
</g>
<!-- k01&#45;worker5 -->
<g id="node16" class="node">
<title>k01&#45;worker5</title>
<path fill="#ff9f01" stroke="black" d="M170,-282C170,-282 32,-282 32,-282 26,-282 20,-276 20,-270 20,-270 20,-256 20,-256 20,-250 26,-244 32,-244 32,-244 170,-244 170,-244 176,-244 182,-250 182,-256 182,-256 182,-270 182,-270 182,-276 176,-282 170,-282"/>
<text text-anchor="middle" x="101" y="-266.2" font-family="Verdana" font-size="11.00">k01&#45;worker5 [linux]</text>
<text text-anchor="middle" x="101" y="-254.2" font-family="Verdana" font-size="11.00">2001:205:cccc::2/127</text>
</g>
<!-- k01&#45;worker5&#45;&#45;sin&#45;e -->
<g id="edge17" class="edge">
<title>k01&#45;worker5&#45;&#45;sin&#45;e</title>
<path fill="none" stroke="black" d="M101,-243.68C101,-223.7 101,-191.92 101,-172.05"/>
</g>
</g>
</svg>
